<?xml version="1.0" encoding="UTF-8"?>
<svg id="Layer_1" xmlns="http://www.w3.org/2000/svg" version="1.1" xmlns:xlink="http://www.w3.org/1999/xlink" viewBox="0 0 28 28">
  <!-- Generator: Adobe Illustrator 30.0.0, SVG Export Plug-In . SVG Version: 2.1.1 Build 123)  -->
  <defs>
    <style>
      .st0 {
        fill: #fff;
      }

      .st1 {
        fill: url(#linear-gradient);
        isolation: isolate;
        opacity: .15;
      }

      .st2 {
        fill: none;
        stroke: url(#linear-gradient1);
        stroke-width: 2px;
      }
    </style>
    <linearGradient id="linear-gradient" x1="4" y1="26" x2="24" y2="6" gradientTransform="translate(0 30) scale(1 -1)" gradientUnits="userSpaceOnUse">
      <stop offset="0" stop-color="#38bdf8"/>
      <stop offset="1" stop-color="#8b5cf6"/>
    </linearGradient>
    <linearGradient id="linear-gradient1" x1="4" y1="26" x2="24" y2="6" gradientTransform="translate(0 30) scale(1 -1)" gradientUnits="userSpaceOnUse">
      <stop offset="0" stop-color="#38bdf8"/>
      <stop offset="1" stop-color="#8b5cf6"/>
    </linearGradient>
  </defs>
  <rect class="st1" x="1" y="1" width="26" height="26" rx="8" ry="8"/>
  <circle class="st2" cx="14" cy="14" r="12"/>
  <path class="st0" d="M14.37,15.52v-1.93h4.98v4.56c-.48.47-1.19.88-2.11,1.24-.92.36-1.85.54-2.79.54-1.2,0-2.24-.25-3.13-.75s-1.56-1.22-2.01-2.16c-.45-.93-.67-1.95-.67-3.05,0-1.19.25-2.25.75-3.18s1.23-1.64,2.2-2.13c.73-.38,1.65-.57,2.74-.57,1.42,0,2.53.3,3.33.89.8.6,1.31,1.42,1.54,2.47l-2.3.43c-.16-.56-.46-1.01-.91-1.33s-1-.49-1.67-.49c-1.01,0-1.81.32-2.41.96-.6.64-.89,1.59-.89,2.85,0,1.36.3,2.38.91,3.06.6.68,1.4,1.02,2.38,1.02.48,0,.97-.09,1.46-.29.49-.19.9-.42,1.25-.69v-1.45h-2.65Z"/>
</svg>